{
	"asset":{
		"generator":"Khronos glTF Blender I/O v4.0.44",
		"version":"2.0"
	},
	"scene":0,
	"scenes":[
		{
			"name":"Scene",
			"nodes":[
				0
			]
		}
	],
	"nodes":[
		{
			"mesh":0,
			"name":"shipMedium"
		}
	],
	"materials":[
		{
			"doubleSided":true,
			"name":"ship_mat",
			"pbrMetallicRoughness":{
				"baseColorTexture":{
					"index":0
				},
				"metallicFactor":0,
				"roughnessFactor":0.5
			}
		}
	],
	"meshes":[
		{
			"name":"Cube.014",
			"primitives":[
				{
					"attributes":{
						"POSITION":0,
						"NORMAL":1,
						"TEXCOORD_0":2
					},
					"indices":3,
					"material":0
				}
			]
		}
	],
	"textures":[
		{
			"sampler":0,
			"source":0
		}
	],
	"images":[
		{
			"mimeType":"image/png",
			"name":"ships_and_wares_palette",
			"uri":"textures/ships_and_wares_palette.png"
		}
	],
	"accessors":[
		{
			"bufferView":0,
			"componentType":5126,
			"count":2336,
			"max":[
				0.3038460314273834,
				0.7246258854866028,
				0.5935583114624023
			],
			"min":[
				-0.31314024329185486,
				0.0035665291361510754,
				-0.6142721772193909
			],
			"type":"VEC3"
		},
		{
			"bufferView":1,
			"componentType":5126,
			"count":2336,
			"type":"VEC3"
		},
		{
			"bufferView":2,
			"componentType":5126,
			"count":2336,
			"type":"VEC2"
		},
		{
			"bufferView":3,
			"componentType":5123,
			"count":8286,
			"type":"SCALAR"
		}
	],
	"bufferViews":[
		{
			"buffer":0,
			"byteLength":28032,
			"byteOffset":0,
			"target":34962
		},
		{
			"buffer":0,
			"byteLength":28032,
			"byteOffset":28032,
			"target":34962
		},
		{
			"buffer":0,
			"byteLength":18688,
			"byteOffset":56064,
			"target":34962
		},
		{
			"buffer":0,
			"byteLength":16572,
			"byteOffset":74752,
			"target":34963
		}
	],
	"samplers":[
		{
			"magFilter":9728,
			"minFilter":9984
		}
	],
	"buffers":[
		{
			"byteLength":91324,
			"uri":"shipMedium.bin"
		}
	]
}
