{
	"asset":{
		"generator":"Khronos glTF Blender I/O v3.6.28",
		"version":"2.0"
	},
	"scene":0,
	"scenes":[
		{
			"name":"Scene",
			"nodes":[
				0
			]
		}
	],
	"nodes":[
		{
			"mesh":0,
			"name":"ship_medium"
		}
	],
	"materials":[
		{
			"doubleSided":true,
			"name":"ship_mat",
			"pbrMetallicRoughness":{
				"baseColorTexture":{
					"index":0
				},
				"metallicFactor":0,
				"roughnessFactor":0.5
			}
		}
	],
	"meshes":[
		{
			"name":"Cube.012",
			"primitives":[
				{
					"attributes":{
						"POSITION":0,
						"NORMAL":1,
						"TEXCOORD_0":2
					},
					"indices":3,
					"material":0
				}
			]
		}
	],
	"textures":[
		{
			"sampler":0,
			"source":0
		}
	],
	"images":[
		{
			"mimeType":"image/png",
			"name":"ships_and_wares_palette",
			"uri":"textures/ships_and_wares_palette.png"
		}
	],
	"accessors":[
		{
			"bufferView":0,
			"componentType":5126,
			"count":1919,
			"max":[
				0.24264201521873474,
				0.7246258854866028,
				0.5935583114624023
			],
			"min":[
				-0.24264173209667206,
				0.0035665291361510754,
				-0.6142721772193909
			],
			"type":"VEC3"
		},
		{
			"bufferView":1,
			"componentType":5126,
			"count":1919,
			"type":"VEC3"
		},
		{
			"bufferView":2,
			"componentType":5126,
			"count":1919,
			"type":"VEC2"
		},
		{
			"bufferView":3,
			"componentType":5123,
			"count":7032,
			"type":"SCALAR"
		}
	],
	"bufferViews":[
		{
			"buffer":0,
			"byteLength":23028,
			"byteOffset":0,
			"target":34962
		},
		{
			"buffer":0,
			"byteLength":23028,
			"byteOffset":23028,
			"target":34962
		},
		{
			"buffer":0,
			"byteLength":15352,
			"byteOffset":46056,
			"target":34962
		},
		{
			"buffer":0,
			"byteLength":14064,
			"byteOffset":61408,
			"target":34963
		}
	],
	"samplers":[
		{
			"magFilter":9728,
			"minFilter":9984
		}
	],
	"buffers":[
		{
			"byteLength":75472,
			"uri":"shipMedium.bin"
		}
	]
}
