{
	"asset":{
		"generator":"Khronos glTF Blender I/O v4.0.44",
		"version":"2.0"
	},
	"extensionsUsed":[
		"KHR_materials_specular",
		"KHR_materials_ior"
	],
	"scene":0,
	"scenes":[
		{
			"name":"Scene",
			"nodes":[
				0
			]
		}
	],
	"nodes":[
		{
			"mesh":0,
			"name":"addon.004"
		}
	],
	"materials":[
		{
			"doubleSided":true,
			"extensions":{
				"KHR_materials_specular":{
					"specularColorFactor":[
						1.154862599529224,
						1.1966476178890133,
						1.3272727727890015
					]
				},
				"KHR_materials_ior":{
					"ior":1.4500000476837158
				}
			},
			"name":"kra_mat",
			"pbrMetallicRoughness":{
				"baseColorTexture":{
					"index":0
				},
				"metallicFactor":0,
				"roughnessFactor":0.4363636374473572
			}
		}
	],
	"meshes":[
		{
			"name":"Cube.039",
			"primitives":[
				{
					"attributes":{
						"POSITION":0,
						"NORMAL":1,
						"TEXCOORD_0":2
					},
					"indices":3,
					"material":0
				}
			]
		}
	],
	"textures":[
		{
			"sampler":0,
			"source":0
		}
	],
	"images":[
		{
			"mimeType":"image/png",
			"name":"ice_color",
			"uri":"textures/ice_color.png"
		}
	],
	"accessors":[
		{
			"bufferView":0,
			"componentType":5126,
			"count":182,
			"max":[
				0.6164810657501221,
				0.08408385515213013,
				0.6195881366729736
			],
			"min":[
				-0.5458139777183533,
				-0.12758682668209076,
				-0.67112135887146
			],
			"type":"VEC3"
		},
		{
			"bufferView":1,
			"componentType":5126,
			"count":182,
			"type":"VEC3"
		},
		{
			"bufferView":2,
			"componentType":5126,
			"count":182,
			"type":"VEC2"
		},
		{
			"bufferView":3,
			"componentType":5123,
			"count":276,
			"type":"SCALAR"
		}
	],
	"bufferViews":[
		{
			"buffer":0,
			"byteLength":2184,
			"byteOffset":0,
			"target":34962
		},
		{
			"buffer":0,
			"byteLength":2184,
			"byteOffset":2184,
			"target":34962
		},
		{
			"buffer":0,
			"byteLength":1456,
			"byteOffset":4368,
			"target":34962
		},
		{
			"buffer":0,
			"byteLength":552,
			"byteOffset":5824,
			"target":34963
		}
	],
	"samplers":[
		{
			"magFilter":9729,
			"minFilter":9987
		}
	],
	"buffers":[
		{
			"byteLength":6376,
			"uri":"small3.bin"
		}
	]
}
