{
	"asset":{
		"generator":"Khronos glTF Blender I/O v4.0.44",
		"version":"2.0"
	},
	"extensionsUsed":[
		"KHR_materials_specular",
		"KHR_materials_ior"
	],
	"scene":0,
	"scenes":[
		{
			"name":"Scene",
			"nodes":[
				0
			]
		}
	],
	"nodes":[
		{
			"mesh":0,
			"name":"addon.007"
		}
	],
	"materials":[
		{
			"doubleSided":true,
			"extensions":{
				"KHR_materials_specular":{
					"specularColorFactor":[
						1.154862599529224,
						1.1966476178890133,
						1.3272727727890015
					]
				},
				"KHR_materials_ior":{
					"ior":1.4500000476837158
				}
			},
			"name":"kra_mat",
			"pbrMetallicRoughness":{
				"baseColorTexture":{
					"index":0
				},
				"metallicFactor":0,
				"roughnessFactor":0.4363636374473572
			}
		}
	],
	"meshes":[
		{
			"name":"Cube.042",
			"primitives":[
				{
					"attributes":{
						"POSITION":0,
						"NORMAL":1,
						"TEXCOORD_0":2
					},
					"indices":3,
					"material":0
				}
			]
		}
	],
	"textures":[
		{
			"sampler":0,
			"source":0
		}
	],
	"images":[
		{
			"mimeType":"image/png",
			"name":"ice_color",
			"uri":"textures/ice_color.png"
		}
	],
	"accessors":[
		{
			"bufferView":0,
			"componentType":5126,
			"count":151,
			"max":[
				0.38854074478149414,
				0.0891062542796135,
				0.34722793102264404
			],
			"min":[
				-0.41121578216552734,
				-0.13656893372535706,
				-0.30696529150009155
			],
			"type":"VEC3"
		},
		{
			"bufferView":1,
			"componentType":5126,
			"count":151,
			"type":"VEC3"
		},
		{
			"bufferView":2,
			"componentType":5126,
			"count":151,
			"type":"VEC2"
		},
		{
			"bufferView":3,
			"componentType":5123,
			"count":228,
			"type":"SCALAR"
		}
	],
	"bufferViews":[
		{
			"buffer":0,
			"byteLength":1812,
			"byteOffset":0,
			"target":34962
		},
		{
			"buffer":0,
			"byteLength":1812,
			"byteOffset":1812,
			"target":34962
		},
		{
			"buffer":0,
			"byteLength":1208,
			"byteOffset":3624,
			"target":34962
		},
		{
			"buffer":0,
			"byteLength":456,
			"byteOffset":4832,
			"target":34963
		}
	],
	"samplers":[
		{
			"magFilter":9729,
			"minFilter":9987
		}
	],
	"buffers":[
		{
			"byteLength":5288,
			"uri":"small1.bin"
		}
	]
}
