{
	"asset":{
		"generator":"Khronos glTF Blender I/O v4.0.44",
		"version":"2.0"
	},
	"extensionsUsed":[
		"KHR_materials_specular",
		"KHR_materials_ior"
	],
	"scene":0,
	"scenes":[
		{
			"name":"Scene",
			"nodes":[
				0
			]
		}
	],
	"nodes":[
		{
			"mesh":0,
			"name":"start_isnald.001"
		}
	],
	"materials":[
		{
			"doubleSided":true,
			"extensions":{
				"KHR_materials_specular":{
					"specularColorFactor":[
						1.154862599529224,
						1.1966476178890133,
						1.3272727727890015
					]
				},
				"KHR_materials_ior":{
					"ior":1.4500000476837158
				}
			},
			"name":"kra_mat",
			"pbrMetallicRoughness":{
				"baseColorTexture":{
					"index":0
				},
				"metallicFactor":0,
				"roughnessFactor":0.4363636374473572
			}
		},
		{
			"doubleSided":true,
			"extensions":{
				"KHR_materials_specular":{
					"specularColorFactor":[
						2.0,
						2.0,
						2.0
					]
				},
				"KHR_materials_ior":{
					"ior":1.4500000476837158
				}
			},
			"name":"letter_mat",
			"pbrMetallicRoughness":{
				"baseColorTexture":{
					"index":1
				},
				"metallicFactor":0,
				"roughnessFactor":0
			}
		}
	],
	"meshes":[
		{
			"name":"Cylinder.031",
			"primitives":[
				{
					"attributes":{
						"POSITION":0,
						"NORMAL":1,
						"TEXCOORD_0":2
					},
					"indices":3,
					"material":0
				},
				{
					"attributes":{
						"POSITION":4,
						"NORMAL":5,
						"TEXCOORD_0":6
					},
					"indices":7,
					"material":1
				}
			]
		}
	],
	"textures":[
		{
			"sampler":0,
			"source":0
		},
		{
			"sampler":0,
			"source":1
		}
	],
	"images":[
		{
			"mimeType":"image/png",
			"name":"ice_color",
			"uri":"textures/ice_color.png"
		},
		{
			"mimeType":"image/png",
			"name":"letter_color",
			"uri":"textures/letter_color.png"
		}
	],
	"accessors":[
		{
			"bufferView":0,
			"componentType":5126,
			"count":755,
			"max":[
				2.3392224311828613,
				0.19759827852249146,
				1.5329850912094116
			],
			"min":[
				-2.111379623413086,
				-0.09643363952636719,
				-1.802507758140564
			],
			"type":"VEC3"
		},
		{
			"bufferView":1,
			"componentType":5126,
			"count":755,
			"type":"VEC3"
		},
		{
			"bufferView":2,
			"componentType":5126,
			"count":755,
			"type":"VEC2"
		},
		{
			"bufferView":3,
			"componentType":5123,
			"count":1797,
			"type":"SCALAR"
		},
		{
			"bufferView":4,
			"componentType":5126,
			"count":2543,
			"max":[
				1.8151817321777344,
				0.19634076952934265,
				0.5332198143005371
			],
			"min":[
				-1.745585560798645,
				0.08218611776828766,
				-0.5941222906112671
			],
			"type":"VEC3"
		},
		{
			"bufferView":5,
			"componentType":5126,
			"count":2543,
			"type":"VEC3"
		},
		{
			"bufferView":6,
			"componentType":5126,
			"count":2543,
			"type":"VEC2"
		},
		{
			"bufferView":7,
			"componentType":5123,
			"count":4125,
			"type":"SCALAR"
		}
	],
	"bufferViews":[
		{
			"buffer":0,
			"byteLength":9060,
			"byteOffset":0,
			"target":34962
		},
		{
			"buffer":0,
			"byteLength":9060,
			"byteOffset":9060,
			"target":34962
		},
		{
			"buffer":0,
			"byteLength":6040,
			"byteOffset":18120,
			"target":34962
		},
		{
			"buffer":0,
			"byteLength":3594,
			"byteOffset":24160,
			"target":34963
		},
		{
			"buffer":0,
			"byteLength":30516,
			"byteOffset":27756,
			"target":34962
		},
		{
			"buffer":0,
			"byteLength":30516,
			"byteOffset":58272,
			"target":34962
		},
		{
			"buffer":0,
			"byteLength":20344,
			"byteOffset":88788,
			"target":34962
		},
		{
			"buffer":0,
			"byteLength":8250,
			"byteOffset":109132,
			"target":34963
		}
	],
	"samplers":[
		{
			"magFilter":9729,
			"minFilter":9987
		}
	],
	"buffers":[
		{
			"byteLength":117384,
			"uri":"start.bin"
		}
	]
}
