{
	"asset":{
		"generator":"Khronos glTF Blender I/O v4.0.44",
		"version":"2.0"
	},
	"scene":0,
	"scenes":[
		{
			"name":"Scene",
			"nodes":[
				0
			]
		}
	],
	"nodes":[
		{
			"mesh":0,
			"name":"shipTool"
		}
	],
	"materials":[
		{
			"doubleSided":true,
			"name":"ship_mat",
			"pbrMetallicRoughness":{
				"baseColorTexture":{
					"index":0
				},
				"metallicFactor":0,
				"roughnessFactor":0.5
			}
		}
	],
	"meshes":[
		{
			"name":"Torus.003",
			"primitives":[
				{
					"attributes":{
						"POSITION":0,
						"NORMAL":1,
						"TEXCOORD_0":2
					},
					"indices":3,
					"material":0
				}
			]
		}
	],
	"textures":[
		{
			"sampler":0,
			"source":0
		}
	],
	"images":[
		{
			"mimeType":"image/png",
			"name":"ships_and_wares_palette",
			"uri":"textures/ships_and_wares_palette.png"
		}
	],
	"accessors":[
		{
			"bufferView":0,
			"componentType":5126,
			"count":1487,
			"max":[
				0.16448566317558289,
				0.3561594486236572,
				0.41823092103004456
			],
			"min":[
				-0.1644856482744217,
				0.00033316994085907936,
				-0.3909081518650055
			],
			"type":"VEC3"
		},
		{
			"bufferView":1,
			"componentType":5126,
			"count":1487,
			"type":"VEC3"
		},
		{
			"bufferView":2,
			"componentType":5126,
			"count":1487,
			"type":"VEC2"
		},
		{
			"bufferView":3,
			"componentType":5123,
			"count":3972,
			"type":"SCALAR"
		}
	],
	"bufferViews":[
		{
			"buffer":0,
			"byteLength":17844,
			"byteOffset":0,
			"target":34962
		},
		{
			"buffer":0,
			"byteLength":17844,
			"byteOffset":17844,
			"target":34962
		},
		{
			"buffer":0,
			"byteLength":11896,
			"byteOffset":35688,
			"target":34962
		},
		{
			"buffer":0,
			"byteLength":7944,
			"byteOffset":47584,
			"target":34963
		}
	],
	"samplers":[
		{
			"magFilter":9728,
			"minFilter":9984
		}
	],
	"buffers":[
		{
			"byteLength":55528,
			"uri":"shipTool.bin"
		}
	]
}
