{
	"asset":{
		"generator":"Khronos glTF Blender I/O v4.0.44",
		"version":"2.0"
	},
	"scene":0,
	"scenes":[
		{
			"name":"Scene",
			"nodes":[
				0
			]
		}
	],
	"nodes":[
		{
			"mesh":0,
			"name":"shipPirates"
		}
	],
	"materials":[
		{
			"doubleSided":true,
			"name":"ship_mat",
			"pbrMetallicRoughness":{
				"baseColorTexture":{
					"index":0
				},
				"metallicFactor":0,
				"roughnessFactor":0.5
			}
		},
		{
			"doubleSided":true,
			"name":"flagmat",
			"pbrMetallicRoughness":{
				"baseColorTexture":{
					"index":1
				},
				"metallicFactor":0
			}
		}
	],
	"meshes":[
		{
			"name":"Cube.003",
			"primitives":[
				{
					"attributes":{
						"POSITION":0,
						"NORMAL":1,
						"TEXCOORD_0":2
					},
					"indices":3,
					"material":0
				},
				{
					"attributes":{
						"POSITION":4,
						"NORMAL":5,
						"TEXCOORD_0":6
					},
					"indices":7,
					"material":1
				}
			]
		}
	],
	"textures":[
		{
			"sampler":0,
			"source":0
		},
		{
			"sampler":0,
			"source":1
		}
	],
	"images":[
		{
			"mimeType":"image/png",
			"name":"ships_and_wares_palette",
			"uri":"textures/ships_and_wares_palette.png"
		},
		{
			"mimeType":"image/png",
			"name":"flag_texture",
			"uri":"textures/flag_texture.png"
		}
	],
	"accessors":[
		{
			"bufferView":0,
			"componentType":5126,
			"count":961,
			"max":[
				0.16149093210697174,
				0.277752161026001,
				0.45464399456977844
			],
			"min":[
				-0.16149093210697174,
				0.0022419944871217012,
				-0.4668588936328888
			],
			"type":"VEC3"
		},
		{
			"bufferView":1,
			"componentType":5126,
			"count":961,
			"type":"VEC3"
		},
		{
			"bufferView":2,
			"componentType":5126,
			"count":961,
			"type":"VEC2"
		},
		{
			"bufferView":3,
			"componentType":5123,
			"count":3129,
			"type":"SCALAR"
		},
		{
			"bufferView":4,
			"componentType":5126,
			"count":24,
			"max":[
				0.007532259915024042,
				0.41590720415115356,
				0.4782782196998596
			],
			"min":[
				-0.007532259915024042,
				0.26473191380500793,
				0.25500208139419556
			],
			"type":"VEC3"
		},
		{
			"bufferView":5,
			"componentType":5126,
			"count":24,
			"type":"VEC3"
		},
		{
			"bufferView":6,
			"componentType":5126,
			"count":24,
			"type":"VEC2"
		},
		{
			"bufferView":7,
			"componentType":5123,
			"count":36,
			"type":"SCALAR"
		}
	],
	"bufferViews":[
		{
			"buffer":0,
			"byteLength":11532,
			"byteOffset":0,
			"target":34962
		},
		{
			"buffer":0,
			"byteLength":11532,
			"byteOffset":11532,
			"target":34962
		},
		{
			"buffer":0,
			"byteLength":7688,
			"byteOffset":23064,
			"target":34962
		},
		{
			"buffer":0,
			"byteLength":6258,
			"byteOffset":30752,
			"target":34963
		},
		{
			"buffer":0,
			"byteLength":288,
			"byteOffset":37012,
			"target":34962
		},
		{
			"buffer":0,
			"byteLength":288,
			"byteOffset":37300,
			"target":34962
		},
		{
			"buffer":0,
			"byteLength":192,
			"byteOffset":37588,
			"target":34962
		},
		{
			"buffer":0,
			"byteLength":72,
			"byteOffset":37780,
			"target":34963
		}
	],
	"samplers":[
		{
			"magFilter":9728,
			"minFilter":9984
		}
	],
	"buffers":[
		{
			"byteLength":37852,
			"uri":"shipPirates.bin"
		}
	]
}
