{
	"asset":{
		"generator":"Khronos glTF Blender I/O v3.6.28",
		"version":"2.0"
	},
	"scene":0,
	"scenes":[
		{
			"name":"Scene",
			"nodes":[
				0
			]
		}
	],
	"nodes":[
		{
			"mesh":0,
			"name":"ship_pirate_food"
		}
	],
	"materials":[
		{
			"doubleSided":true,
			"name":"ship_mat",
			"pbrMetallicRoughness":{
				"baseColorTexture":{
					"index":0
				},
				"metallicFactor":0,
				"roughnessFactor":0.5
			}
		}
	],
	"meshes":[
		{
			"name":"Cube.031",
			"primitives":[
				{
					"attributes":{
						"POSITION":0,
						"NORMAL":1,
						"TEXCOORD_0":2
					},
					"indices":3,
					"material":0
				}
			]
		}
	],
	"textures":[
		{
			"sampler":0,
			"source":0
		}
	],
	"images":[
		{
			"mimeType":"image/png",
			"name":"ships_and_wares_palette",
			"uri":"textures/ships_and_wares_palette.png"
		}
	],
	"accessors":[
		{
			"bufferView":0,
			"componentType":5126,
			"count":1301,
			"max":[
				0.1557512879371643,
				0.3536653518676758,
				0.4136657118797302
			],
			"min":[
				-0.159929558634758,
				0.0022419944871217012,
				-0.391020804643631
			],
			"type":"VEC3"
		},
		{
			"bufferView":1,
			"componentType":5126,
			"count":1301,
			"type":"VEC3"
		},
		{
			"bufferView":2,
			"componentType":5126,
			"count":1301,
			"type":"VEC2"
		},
		{
			"bufferView":3,
			"componentType":5123,
			"count":4848,
			"type":"SCALAR"
		}
	],
	"bufferViews":[
		{
			"buffer":0,
			"byteLength":15612,
			"byteOffset":0,
			"target":34962
		},
		{
			"buffer":0,
			"byteLength":15612,
			"byteOffset":15612,
			"target":34962
		},
		{
			"buffer":0,
			"byteLength":10408,
			"byteOffset":31224,
			"target":34962
		},
		{
			"buffer":0,
			"byteLength":9696,
			"byteOffset":41632,
			"target":34963
		}
	],
	"samplers":[
		{
			"magFilter":9728,
			"minFilter":9984
		}
	],
	"buffers":[
		{
			"byteLength":51328,
			"uri":"shipPirates.bin"
		}
	]
}
