{
	"asset":{
		"generator":"Khronos glTF Blender I/O v4.0.44",
		"version":"2.0"
	},
	"scene":0,
	"scenes":[
		{
			"name":"Scene",
			"nodes":[
				0
			]
		}
	],
	"nodes":[
		{
			"mesh":0,
			"name":"workshop"
		}
	],
	"materials":[
		{
			"doubleSided":true,
			"name":"ship_mat",
			"pbrMetallicRoughness":{
				"baseColorTexture":{
					"index":0
				},
				"metallicFactor":0,
				"roughnessFactor":0.5
			}
		}
	],
	"meshes":[
		{
			"name":"Cylinder.002",
			"primitives":[
				{
					"attributes":{
						"POSITION":0,
						"NORMAL":1,
						"TEXCOORD_0":2
					},
					"indices":3,
					"material":0
				}
			]
		}
	],
	"textures":[
		{
			"sampler":0,
			"source":0
		}
	],
	"images":[
		{
			"mimeType":"image/png",
			"name":"ships_and_wares_palette",
			"uri":"textures/ships_and_wares_palette.png"
		}
	],
	"accessors":[
		{
			"bufferView":0,
			"componentType":5126,
			"count":1312,
			"max":[
				0.3938802182674408,
				0.5312213897705078,
				0.2112731784582138
			],
			"min":[
				-0.31966590881347656,
				-2.2433152224721198e-08,
				-0.161798894405365
			],
			"type":"VEC3"
		},
		{
			"bufferView":1,
			"componentType":5126,
			"count":1312,
			"type":"VEC3"
		},
		{
			"bufferView":2,
			"componentType":5126,
			"count":1312,
			"type":"VEC2"
		},
		{
			"bufferView":3,
			"componentType":5123,
			"count":2826,
			"type":"SCALAR"
		}
	],
	"bufferViews":[
		{
			"buffer":0,
			"byteLength":15744,
			"byteOffset":0,
			"target":34962
		},
		{
			"buffer":0,
			"byteLength":15744,
			"byteOffset":15744,
			"target":34962
		},
		{
			"buffer":0,
			"byteLength":10496,
			"byteOffset":31488,
			"target":34962
		},
		{
			"buffer":0,
			"byteLength":5652,
			"byteOffset":41984,
			"target":34963
		}
	],
	"samplers":[
		{
			"magFilter":9728,
			"minFilter":9984
		}
	],
	"buffers":[
		{
			"byteLength":47636,
			"uri":"workshop.bin"
		}
	]
}
