{
	"asset":{
		"generator":"Khronos glTF Blender I/O v4.0.44",
		"version":"2.0"
	},
	"scene":0,
	"scenes":[
		{
			"name":"Scene",
			"nodes":[
				0
			]
		}
	],
	"nodes":[
		{
			"mesh":0,
			"name":"workshop"
		}
	],
	"materials":[
		{
			"doubleSided":true,
			"name":"ship_mat",
			"pbrMetallicRoughness":{
				"baseColorTexture":{
					"index":0
				},
				"metallicFactor":0,
				"roughnessFactor":0.5
			}
		}
	],
	"meshes":[
		{
			"name":"Cylinder.002",
			"primitives":[
				{
					"attributes":{
						"POSITION":0,
						"NORMAL":1,
						"TEXCOORD_0":2
					},
					"indices":3,
					"material":0
				}
			]
		}
	],
	"textures":[
		{
			"sampler":0,
			"source":0
		}
	],
	"images":[
		{
			"mimeType":"image/png",
			"name":"ships_and_wares_palette",
			"uri":"textures/ships_and_wares_palette.png"
		}
	],
	"accessors":[
		{
			"bufferView":0,
			"componentType":5126,
			"count":1582,
			"max":[
				0.4594864547252655,
				0.5312213897705078,
				0.25991949439048767
			],
			"min":[
				-0.31966590881347656,
				-2.2433152224721198e-08,
				-0.16790565848350525
			],
			"type":"VEC3"
		},
		{
			"bufferView":1,
			"componentType":5126,
			"count":1582,
			"type":"VEC3"
		},
		{
			"bufferView":2,
			"componentType":5126,
			"count":1582,
			"type":"VEC2"
		},
		{
			"bufferView":3,
			"componentType":5123,
			"count":3366,
			"type":"SCALAR"
		}
	],
	"bufferViews":[
		{
			"buffer":0,
			"byteLength":18984,
			"byteOffset":0,
			"target":34962
		},
		{
			"buffer":0,
			"byteLength":18984,
			"byteOffset":18984,
			"target":34962
		},
		{
			"buffer":0,
			"byteLength":12656,
			"byteOffset":37968,
			"target":34962
		},
		{
			"buffer":0,
			"byteLength":6732,
			"byteOffset":50624,
			"target":34963
		}
	],
	"samplers":[
		{
			"magFilter":9728,
			"minFilter":9984
		}
	],
	"buffers":[
		{
			"byteLength":57356,
			"uri":"workshop.bin"
		}
	]
}
