{
	"asset":{
		"generator":"Khronos glTF Blender I/O v3.6.28",
		"version":"2.0"
	},
	"extensionsUsed":[
		"KHR_materials_specular",
		"KHR_materials_ior"
	],
	"scene":0,
	"scenes":[
		{
			"name":"Scene",
			"nodes":[
				0
			]
		}
	],
	"nodes":[
		{
			"mesh":0,
			"name":"Cylinder.006",
			"rotation":[
				0,
				-0.7071067094802856,
				0,
				0.7071068286895752
			]
		}
	],
	"materials":[
		{
			"doubleSided":true,
			"extensions":{
				"KHR_materials_specular":{
					"specularColorFactor":[
						0,
						0,
						0
					]
				},
				"KHR_materials_ior":{
					"ior":1.4500000476837158
				}
			},
			"name":"keeper_material",
			"pbrMetallicRoughness":{
				"baseColorTexture":{
					"index":0
				},
				"metallicFactor":0
			}
		},
		{
			"doubleSided":true,
			"extensions":{
				"KHR_materials_specular":{
					"specularColorFactor":[
						0,
						0,
						0
					]
				},
				"KHR_materials_ior":{
					"ior":1.4500000476837158
				}
			},
			"name":"basic_material",
			"pbrMetallicRoughness":{
				"baseColorTexture":{
					"index":1
				},
				"metallicFactor":0
			}
		}
	],
	"meshes":[
		{
			"name":"Cylinder.007",
			"primitives":[
				{
					"attributes":{
						"POSITION":0,
						"NORMAL":1,
						"TEXCOORD_0":2
					},
					"indices":3,
					"material":0
				},
				{
					"attributes":{
						"POSITION":4,
						"NORMAL":5,
						"TEXCOORD_0":6
					},
					"indices":7,
					"material":1
				}
			]
		}
	],
	"textures":[
		{
			"sampler":0,
			"source":0
		},
		{
			"sampler":0,
			"source":1
		}
	],
	"images":[
		{
			"mimeType":"image/png",
			"name":"keeper_paleta",
			"uri":"textures/keeper_paleta.png"
		},
		{
			"mimeType":"image/png",
			"name":"paleta_4_blockout",
			"uri":"textures/paleta_4_blockout.png"
		}
	],
	"accessors":[
		{
			"bufferView":0,
			"componentType":5126,
			"count":3824,
			"max":[
				0.1147577315568924,
				0.3744765818119049,
				0.0749940499663353
			],
			"min":[
				-0.1147577315568924,
				0.05184529349207878,
				-0.0749940499663353
			],
			"type":"VEC3"
		},
		{
			"bufferView":1,
			"componentType":5126,
			"count":3824,
			"type":"VEC3"
		},
		{
			"bufferView":2,
			"componentType":5126,
			"count":3824,
			"type":"VEC2"
		},
		{
			"bufferView":3,
			"componentType":5123,
			"count":16248,
			"type":"SCALAR"
		},
		{
			"bufferView":4,
			"componentType":5126,
			"count":488,
			"max":[
				0.06907960772514343,
				0.06081303581595421,
				0.034150805324316025
			],
			"min":[
				-0.06907960772514343,
				-0.0011100659612566233,
				-0.029609309509396553
			],
			"type":"VEC3"
		},
		{
			"bufferView":5,
			"componentType":5126,
			"count":488,
			"type":"VEC3"
		},
		{
			"bufferView":6,
			"componentType":5126,
			"count":488,
			"type":"VEC2"
		},
		{
			"bufferView":7,
			"componentType":5123,
			"count":1536,
			"type":"SCALAR"
		}
	],
	"bufferViews":[
		{
			"buffer":0,
			"byteLength":45888,
			"byteOffset":0,
			"target":34962
		},
		{
			"buffer":0,
			"byteLength":45888,
			"byteOffset":45888,
			"target":34962
		},
		{
			"buffer":0,
			"byteLength":30592,
			"byteOffset":91776,
			"target":34962
		},
		{
			"buffer":0,
			"byteLength":32496,
			"byteOffset":122368,
			"target":34963
		},
		{
			"buffer":0,
			"byteLength":5856,
			"byteOffset":154864,
			"target":34962
		},
		{
			"buffer":0,
			"byteLength":5856,
			"byteOffset":160720,
			"target":34962
		},
		{
			"buffer":0,
			"byteLength":3904,
			"byteOffset":166576,
			"target":34962
		},
		{
			"buffer":0,
			"byteLength":3072,
			"byteOffset":170480,
			"target":34963
		}
	],
	"samplers":[
		{
			"magFilter":9728,
			"minFilter":9984
		}
	],
	"buffers":[
		{
			"byteLength":173552,
			"uri":"keeper.bin"
		}
	]
}
