{
	"asset":{
		"generator":"Khronos glTF Blender I/O v3.6.28",
		"version":"2.0"
	},
	"extensionsUsed":[
		"KHR_materials_specular",
		"KHR_materials_ior"
	],
	"scene":0,
	"scenes":[
		{
			"name":"Scene",
			"nodes":[
				0,
				1,
				2,
				3,
				4,
				5,
				6,
				7,
				8,
				9
			]
		}
	],
	"nodes":[
		{
			"mesh":0,
			"name":"Cylinder.004"
		},
		{
			"mesh":1,
			"name":"Cylinder.005"
		},
		{
			"mesh":2,
			"name":"Cylinder.006"
		},
		{
			"mesh":3,
			"name":"Sphere.005"
		},
		{
			"mesh":4,
			"name":"Sphere.006"
		},
		{
			"mesh":5,
			"name":"Sphere.007"
		},
		{
			"mesh":6,
			"name":"Cylinder.007"
		},
		{
			"mesh":7,
			"name":"Sphere.008"
		},
		{
			"mesh":8,
			"name":"Cube.002"
		},
		{
			"mesh":9,
			"name":"Sphere.009"
		}
	],
	"materials":[
		{
			"doubleSided":true,
			"extensions":{
				"KHR_materials_specular":{
					"specularColorFactor":[
						0,
						0,
						0
					]
				},
				"KHR_materials_ior":{
					"ior":1.4500000476837158
				}
			},
			"name":"keepermat",
			"pbrMetallicRoughness":{
				"baseColorTexture":{
					"index":0
				},
				"metallicFactor":0
			}
		}
	],
	"meshes":[
		{
			"name":"Cylinder.005",
			"primitives":[
				{
					"attributes":{
						"POSITION":0,
						"NORMAL":1,
						"TEXCOORD_0":2
					},
					"indices":3,
					"material":0
				}
			]
		},
		{
			"name":"Cylinder.006",
			"primitives":[
				{
					"attributes":{
						"POSITION":4,
						"NORMAL":5,
						"TEXCOORD_0":6
					},
					"indices":7,
					"material":0
				}
			]
		},
		{
			"name":"Cylinder.007",
			"primitives":[
				{
					"attributes":{
						"POSITION":8,
						"NORMAL":9,
						"TEXCOORD_0":10
					},
					"indices":11,
					"material":0
				}
			]
		},
		{
			"name":"Sphere.005",
			"primitives":[
				{
					"attributes":{
						"POSITION":12,
						"NORMAL":13,
						"TEXCOORD_0":14
					},
					"indices":15,
					"material":0
				}
			]
		},
		{
			"name":"Sphere.006",
			"primitives":[
				{
					"attributes":{
						"POSITION":16,
						"NORMAL":17,
						"TEXCOORD_0":18
					},
					"indices":19,
					"material":0
				}
			]
		},
		{
			"name":"Sphere.007",
			"primitives":[
				{
					"attributes":{
						"POSITION":20,
						"NORMAL":21,
						"TEXCOORD_0":22
					},
					"indices":23,
					"material":0
				}
			]
		},
		{
			"name":"Cylinder.008",
			"primitives":[
				{
					"attributes":{
						"POSITION":24,
						"NORMAL":25,
						"TEXCOORD_0":26
					},
					"indices":27,
					"material":0
				}
			]
		},
		{
			"name":"Sphere.008",
			"primitives":[
				{
					"attributes":{
						"POSITION":28,
						"NORMAL":29,
						"TEXCOORD_0":30
					},
					"indices":31,
					"material":0
				}
			]
		},
		{
			"name":"Cube.006",
			"primitives":[
				{
					"attributes":{
						"POSITION":32,
						"NORMAL":33,
						"TEXCOORD_0":34
					},
					"indices":35,
					"material":0
				}
			]
		},
		{
			"name":"Sphere.009",
			"primitives":[
				{
					"attributes":{
						"POSITION":36,
						"NORMAL":37,
						"TEXCOORD_0":38
					},
					"indices":39
				}
			]
		}
	],
	"textures":[
		{
			"sampler":0,
			"source":0
		}
	],
	"images":[
		{
			"mimeType":"image/png",
			"name":"keeper_paleta",
			"uri":"textures/keeper_paleta.png"
		}
	],
	"accessors":[
		{
			"bufferView":0,
			"componentType":5126,
			"count":486,
			"max":[
				1.9200347661972046,
				0.2841573655605316,
				2.1862590312957764
			],
			"min":[
				1.8562746047973633,
				0.22223426401615143,
				2.0480997562408447
			],
			"type":"VEC3"
		},
		{
			"bufferView":1,
			"componentType":5126,
			"count":486,
			"type":"VEC3"
		},
		{
			"bufferView":2,
			"componentType":5126,
			"count":486,
			"type":"VEC2"
		},
		{
			"bufferView":3,
			"componentType":5123,
			"count":1536,
			"type":"SCALAR"
		},
		{
			"bufferView":4,
			"componentType":5126,
			"count":272,
			"max":[
				1.911752462387085,
				0.3236268162727356,
				2.1778006553649902
			],
			"min":[
				1.8823401927947998,
				0.275189608335495,
				2.056558132171631
			],
			"type":"VEC3"
		},
		{
			"bufferView":5,
			"componentType":5126,
			"count":272,
			"type":"VEC3"
		},
		{
			"bufferView":6,
			"componentType":5126,
			"count":272,
			"type":"VEC2"
		},
		{
			"bufferView":7,
			"componentType":5123,
			"count":744,
			"type":"SCALAR"
		},
		{
			"bufferView":8,
			"componentType":5126,
			"count":394,
			"max":[
				1.9608780145645142,
				0.5219601392745972,
				2.2319371700286865
			],
			"min":[
				1.8108898401260376,
				0.3115817904472351,
				2.0024216175079346
			],
			"type":"VEC3"
		},
		{
			"bufferView":9,
			"componentType":5126,
			"count":394,
			"type":"VEC3"
		},
		{
			"bufferView":10,
			"componentType":5126,
			"count":394,
			"type":"VEC2"
		},
		{
			"bufferView":11,
			"componentType":5123,
			"count":1356,
			"type":"SCALAR"
		},
		{
			"bufferView":12,
			"componentType":5126,
			"count":585,
			"max":[
				1.9591336250305176,
				0.5415942668914795,
				2.173903226852417
			],
			"min":[
				1.8622337579727173,
				0.4857664406299591,
				2.060455560684204
			],
			"type":"VEC3"
		},
		{
			"bufferView":13,
			"componentType":5126,
			"count":585,
			"type":"VEC3"
		},
		{
			"bufferView":14,
			"componentType":5126,
			"count":585,
			"type":"VEC2"
		},
		{
			"bufferView":15,
			"componentType":5123,
			"count":2880,
			"type":"SCALAR"
		},
		{
			"bufferView":16,
			"componentType":5126,
			"count":600,
			"max":[
				1.9181993007659912,
				0.5889414548873901,
				2.1511218547821045
			],
			"min":[
				1.8491036891937256,
				0.5014832615852356,
				2.0832369327545166
			],
			"type":"VEC3"
		},
		{
			"bufferView":17,
			"componentType":5126,
			"count":600,
			"type":"VEC3"
		},
		{
			"bufferView":18,
			"componentType":5126,
			"count":600,
			"type":"VEC2"
		},
		{
			"bufferView":19,
			"componentType":5123,
			"count":2880,
			"type":"SCALAR"
		},
		{
			"bufferView":20,
			"componentType":5126,
			"count":354,
			"max":[
				1.904539942741394,
				0.5636370182037354,
				2.1602325439453125
			],
			"min":[
				1.8905413150787354,
				0.5416171550750732,
				2.0741262435913086
			],
			"type":"VEC3"
		},
		{
			"bufferView":21,
			"componentType":5126,
			"count":354,
			"type":"VEC3"
		},
		{
			"bufferView":22,
			"componentType":5126,
			"count":354,
			"type":"VEC2"
		},
		{
			"bufferView":23,
			"componentType":5123,
			"count":1344,
			"type":"SCALAR"
		},
		{
			"bufferView":24,
			"componentType":5126,
			"count":317,
			"max":[
				1.9278666973114014,
				0.5978208780288696,
				2.1526639461517334
			],
			"min":[
				1.8558800220489502,
				0.5515720844268799,
				2.0816948413848877
			],
			"type":"VEC3"
		},
		{
			"bufferView":25,
			"componentType":5126,
			"count":317,
			"type":"VEC3"
		},
		{
			"bufferView":26,
			"componentType":5126,
			"count":317,
			"type":"VEC2"
		},
		{
			"bufferView":27,
			"componentType":5123,
			"count":996,
			"type":"SCALAR"
		},
		{
			"bufferView":28,
			"componentType":5126,
			"count":599,
			"max":[
				1.8979331254959106,
				0.5631344318389893,
				2.1575191020965576
			],
			"min":[
				1.846042513847351,
				0.49309197068214417,
				2.0768396854400635
			],
			"type":"VEC3"
		},
		{
			"bufferView":29,
			"componentType":5126,
			"count":599,
			"type":"VEC3"
		},
		{
			"bufferView":30,
			"componentType":5126,
			"count":599,
			"type":"VEC2"
		},
		{
			"bufferView":31,
			"componentType":5123,
			"count":2880,
			"type":"SCALAR"
		},
		{
			"bufferView":32,
			"componentType":5126,
			"count":105,
			"max":[
				1.8594543933868408,
				0.5474046468734741,
				2.1439080238342285
			],
			"min":[
				1.8429992198944092,
				0.52791428565979,
				2.0904507637023926
			],
			"type":"VEC3"
		},
		{
			"bufferView":33,
			"componentType":5126,
			"count":105,
			"type":"VEC3"
		},
		{
			"bufferView":34,
			"componentType":5126,
			"count":105,
			"type":"VEC2"
		},
		{
			"bufferView":35,
			"componentType":5123,
			"count":288,
			"type":"SCALAR"
		},
		{
			"bufferView":36,
			"componentType":5126,
			"count":559,
			"max":[
				1.9307516813278198,
				0.5634256601333618,
				2.1556851863861084
			],
			"min":[
				1.8910542726516724,
				0.5070778131484985,
				2.0786736011505127
			],
			"type":"VEC3"
		},
		{
			"bufferView":37,
			"componentType":5126,
			"count":559,
			"type":"VEC3"
		},
		{
			"bufferView":38,
			"componentType":5126,
			"count":559,
			"type":"VEC2"
		},
		{
			"bufferView":39,
			"componentType":5123,
			"count":2880,
			"type":"SCALAR"
		}
	],
	"bufferViews":[
		{
			"buffer":0,
			"byteLength":5832,
			"byteOffset":0,
			"target":34962
		},
		{
			"buffer":0,
			"byteLength":5832,
			"byteOffset":5832,
			"target":34962
		},
		{
			"buffer":0,
			"byteLength":3888,
			"byteOffset":11664,
			"target":34962
		},
		{
			"buffer":0,
			"byteLength":3072,
			"byteOffset":15552,
			"target":34963
		},
		{
			"buffer":0,
			"byteLength":3264,
			"byteOffset":18624,
			"target":34962
		},
		{
			"buffer":0,
			"byteLength":3264,
			"byteOffset":21888,
			"target":34962
		},
		{
			"buffer":0,
			"byteLength":2176,
			"byteOffset":25152,
			"target":34962
		},
		{
			"buffer":0,
			"byteLength":1488,
			"byteOffset":27328,
			"target":34963
		},
		{
			"buffer":0,
			"byteLength":4728,
			"byteOffset":28816,
			"target":34962
		},
		{
			"buffer":0,
			"byteLength":4728,
			"byteOffset":33544,
			"target":34962
		},
		{
			"buffer":0,
			"byteLength":3152,
			"byteOffset":38272,
			"target":34962
		},
		{
			"buffer":0,
			"byteLength":2712,
			"byteOffset":41424,
			"target":34963
		},
		{
			"buffer":0,
			"byteLength":7020,
			"byteOffset":44136,
			"target":34962
		},
		{
			"buffer":0,
			"byteLength":7020,
			"byteOffset":51156,
			"target":34962
		},
		{
			"buffer":0,
			"byteLength":4680,
			"byteOffset":58176,
			"target":34962
		},
		{
			"buffer":0,
			"byteLength":5760,
			"byteOffset":62856,
			"target":34963
		},
		{
			"buffer":0,
			"byteLength":7200,
			"byteOffset":68616,
			"target":34962
		},
		{
			"buffer":0,
			"byteLength":7200,
			"byteOffset":75816,
			"target":34962
		},
		{
			"buffer":0,
			"byteLength":4800,
			"byteOffset":83016,
			"target":34962
		},
		{
			"buffer":0,
			"byteLength":5760,
			"byteOffset":87816,
			"target":34963
		},
		{
			"buffer":0,
			"byteLength":4248,
			"byteOffset":93576,
			"target":34962
		},
		{
			"buffer":0,
			"byteLength":4248,
			"byteOffset":97824,
			"target":34962
		},
		{
			"buffer":0,
			"byteLength":2832,
			"byteOffset":102072,
			"target":34962
		},
		{
			"buffer":0,
			"byteLength":2688,
			"byteOffset":104904,
			"target":34963
		},
		{
			"buffer":0,
			"byteLength":3804,
			"byteOffset":107592,
			"target":34962
		},
		{
			"buffer":0,
			"byteLength":3804,
			"byteOffset":111396,
			"target":34962
		},
		{
			"buffer":0,
			"byteLength":2536,
			"byteOffset":115200,
			"target":34962
		},
		{
			"buffer":0,
			"byteLength":1992,
			"byteOffset":117736,
			"target":34963
		},
		{
			"buffer":0,
			"byteLength":7188,
			"byteOffset":119728,
			"target":34962
		},
		{
			"buffer":0,
			"byteLength":7188,
			"byteOffset":126916,
			"target":34962
		},
		{
			"buffer":0,
			"byteLength":4792,
			"byteOffset":134104,
			"target":34962
		},
		{
			"buffer":0,
			"byteLength":5760,
			"byteOffset":138896,
			"target":34963
		},
		{
			"buffer":0,
			"byteLength":1260,
			"byteOffset":144656,
			"target":34962
		},
		{
			"buffer":0,
			"byteLength":1260,
			"byteOffset":145916,
			"target":34962
		},
		{
			"buffer":0,
			"byteLength":840,
			"byteOffset":147176,
			"target":34962
		},
		{
			"buffer":0,
			"byteLength":576,
			"byteOffset":148016,
			"target":34963
		},
		{
			"buffer":0,
			"byteLength":6708,
			"byteOffset":148592,
			"target":34962
		},
		{
			"buffer":0,
			"byteLength":6708,
			"byteOffset":155300,
			"target":34962
		},
		{
			"buffer":0,
			"byteLength":4472,
			"byteOffset":162008,
			"target":34962
		},
		{
			"buffer":0,
			"byteLength":5760,
			"byteOffset":166480,
			"target":34963
		}
	],
	"samplers":[
		{
			"magFilter":9728,
			"minFilter":9984
		}
	],
	"buffers":[
		{
			"byteLength":172240,
			"uri":"keeper.bin"
		}
	]
}
