{
	"asset":{
		"generator":"Khronos glTF Blender I/O v4.0.44",
		"version":"2.0"
	},
	"scene":0,
	"scenes":[
		{
			"name":"Scene",
			"nodes":[
				0
			]
		}
	],
	"nodes":[
		{
			"mesh":0,
			"name":"shipBig"
		}
	],
	"materials":[
		{
			"doubleSided":true,
			"name":"ship_mat",
			"pbrMetallicRoughness":{
				"baseColorTexture":{
					"index":0
				},
				"metallicFactor":0,
				"roughnessFactor":0.5
			}
		}
	],
	"meshes":[
		{
			"name":"Cylinder.003",
			"primitives":[
				{
					"attributes":{
						"POSITION":0,
						"NORMAL":1,
						"TEXCOORD_0":2
					},
					"indices":3,
					"material":0
				}
			]
		}
	],
	"textures":[
		{
			"sampler":0,
			"source":0
		}
	],
	"images":[
		{
			"mimeType":"image/png",
			"name":"ships_and_wares_palette",
			"uri":"textures/ships_and_wares_palette.png"
		}
	],
	"accessors":[
		{
			"bufferView":0,
			"componentType":5126,
			"count":4306,
			"max":[
				0.35974422097206116,
				0.6376676559448242,
				0.8940553665161133
			],
			"min":[
				-0.3368059992790222,
				0.0012204161612316966,
				-0.866065502166748
			],
			"type":"VEC3"
		},
		{
			"bufferView":1,
			"componentType":5126,
			"count":4306,
			"type":"VEC3"
		},
		{
			"bufferView":2,
			"componentType":5126,
			"count":4306,
			"type":"VEC2"
		},
		{
			"bufferView":3,
			"componentType":5123,
			"count":16104,
			"type":"SCALAR"
		}
	],
	"bufferViews":[
		{
			"buffer":0,
			"byteLength":51672,
			"byteOffset":0,
			"target":34962
		},
		{
			"buffer":0,
			"byteLength":51672,
			"byteOffset":51672,
			"target":34962
		},
		{
			"buffer":0,
			"byteLength":34448,
			"byteOffset":103344,
			"target":34962
		},
		{
			"buffer":0,
			"byteLength":32208,
			"byteOffset":137792,
			"target":34963
		}
	],
	"samplers":[
		{
			"magFilter":9728,
			"minFilter":9984
		}
	],
	"buffers":[
		{
			"byteLength":170000,
			"uri":"shipBig.bin"
		}
	]
}
