{
	"asset":{
		"generator":"Khronos glTF Blender I/O v3.6.28",
		"version":"2.0"
	},
	"scene":0,
	"scenes":[
		{
			"name":"Scene",
			"nodes":[
				0
			]
		}
	],
	"nodes":[
		{
			"mesh":0,
			"name":"generator"
		}
	],
	"materials":[
		{
			"doubleSided":true,
			"name":"Material",
			"pbrMetallicRoughness":{
				"baseColorTexture":{
					"index":0
				},
				"metallicFactor":0,
				"roughnessFactor":0.5
			}
		}
	],
	"meshes":[
		{
			"name":"Cylinder.003",
			"primitives":[
				{
					"attributes":{
						"POSITION":0,
						"NORMAL":1,
						"TEXCOORD_0":2
					},
					"indices":3,
					"material":0
				}
			]
		}
	],
	"textures":[
		{
			"sampler":0,
			"source":0
		}
	],
	"images":[
		{
			"mimeType":"image/png",
			"name":"ships_and_wares_palette",
			"uri":"textures/ships_and_wares_palette.png"
		}
	],
	"accessors":[
		{
			"bufferView":0,
			"componentType":5126,
			"count":1321,
			"max":[
				0.29881763458251953,
				0.43029889464378357,
				0.20322735607624054
			],
			"min":[
				-0.41247668862342834,
				0.00017101036792155355,
				-0.20322754979133606
			],
			"type":"VEC3"
		},
		{
			"bufferView":1,
			"componentType":5126,
			"count":1321,
			"type":"VEC3"
		},
		{
			"bufferView":2,
			"componentType":5126,
			"count":1321,
			"type":"VEC2"
		},
		{
			"bufferView":3,
			"componentType":5123,
			"count":3090,
			"type":"SCALAR"
		}
	],
	"bufferViews":[
		{
			"buffer":0,
			"byteLength":15852,
			"byteOffset":0,
			"target":34962
		},
		{
			"buffer":0,
			"byteLength":15852,
			"byteOffset":15852,
			"target":34962
		},
		{
			"buffer":0,
			"byteLength":10568,
			"byteOffset":31704,
			"target":34962
		},
		{
			"buffer":0,
			"byteLength":6180,
			"byteOffset":42272,
			"target":34963
		}
	],
	"samplers":[
		{
			"magFilter":9728,
			"minFilter":9984
		}
	],
	"buffers":[
		{
			"byteLength":48452,
			"uri":"generator.bin"
		}
	]
}
