{
	"asset":{
		"generator":"Khronos glTF Blender I/O v4.0.44",
		"version":"2.0"
	},
	"scene":0,
	"scenes":[
		{
			"name":"Scene",
			"nodes":[
				0
			]
		}
	],
	"nodes":[
		{
			"mesh":0,
			"name":"wood1"
		}
	],
	"materials":[
		{
			"doubleSided":true,
			"name":"woodmat",
			"pbrMetallicRoughness":{
				"baseColorTexture":{
					"index":0
				},
				"metallicFactor":0,
				"roughnessFactor":0.5
			}
		}
	],
	"meshes":[
		{
			"name":"Cube.003",
			"primitives":[
				{
					"attributes":{
						"POSITION":0,
						"NORMAL":1,
						"TEXCOORD_0":2
					},
					"indices":3,
					"material":0
				}
			]
		}
	],
	"textures":[
		{
			"sampler":0,
			"source":0
		}
	],
	"images":[
		{
			"mimeType":"image/png",
			"name":"wood_color",
			"uri":"textures/wood_color.png"
		}
	],
	"accessors":[
		{
			"bufferView":0,
			"componentType":5126,
			"count":88,
			"max":[
				0.251416951417923,
				0.2233349233865738,
				0.4162557125091553
			],
			"min":[
				-0.547452986240387,
				0.06789448112249374,
				-0.4162557125091553
			],
			"type":"VEC3"
		},
		{
			"bufferView":1,
			"componentType":5126,
			"count":88,
			"type":"VEC3"
		},
		{
			"bufferView":2,
			"componentType":5126,
			"count":88,
			"type":"VEC2"
		},
		{
			"bufferView":3,
			"componentType":5123,
			"count":168,
			"type":"SCALAR"
		}
	],
	"bufferViews":[
		{
			"buffer":0,
			"byteLength":1056,
			"byteOffset":0,
			"target":34962
		},
		{
			"buffer":0,
			"byteLength":1056,
			"byteOffset":1056,
			"target":34962
		},
		{
			"buffer":0,
			"byteLength":704,
			"byteOffset":2112,
			"target":34962
		},
		{
			"buffer":0,
			"byteLength":336,
			"byteOffset":2816,
			"target":34963
		}
	],
	"samplers":[
		{
			"magFilter":9729,
			"minFilter":9987
		}
	],
	"buffers":[
		{
			"byteLength":3152,
			"uri":"wood1.bin"
		}
	]
}
