{
	"asset":{
		"generator":"Khronos glTF Blender I/O v3.6.28",
		"version":"2.0"
	},
	"scene":0,
	"scenes":[
		{
			"name":"Scene",
			"nodes":[
				0
			]
		}
	],
	"nodes":[
		{
			"mesh":0,
			"name":"keeper"
		}
	],
	"materials":[
		{
			"doubleSided":true,
			"name":"keeper_mat",
			"pbrMetallicRoughness":{
				"baseColorTexture":{
					"index":0
				},
				"metallicFactor":0,
				"roughnessFactor":0.8999999761581421
			}
		}
	],
	"meshes":[
		{
			"name":"Sphere.004",
			"primitives":[
				{
					"attributes":{
						"POSITION":0,
						"NORMAL":1,
						"TEXCOORD_0":2
					},
					"indices":3,
					"material":0
				}
			]
		}
	],
	"textures":[
		{
			"sampler":0,
			"source":0
		}
	],
	"images":[
		{
			"mimeType":"image/png",
			"name":"keeper_palette",
			"uri":"textures/keeper_palette.png"
		}
	],
	"accessors":[
		{
			"bufferView":0,
			"componentType":5126,
			"count":1785,
			"max":[
				0.37041646242141724,
				0.45179978013038635,
				0.2094195932149887
			],
			"min":[
				-0.37327083945274353,
				-0.01514822244644165,
				-0.2094195932149887
			],
			"type":"VEC3"
		},
		{
			"bufferView":1,
			"componentType":5126,
			"count":1785,
			"type":"VEC3"
		},
		{
			"bufferView":2,
			"componentType":5126,
			"count":1785,
			"type":"VEC2"
		},
		{
			"bufferView":3,
			"componentType":5123,
			"count":5277,
			"type":"SCALAR"
		}
	],
	"bufferViews":[
		{
			"buffer":0,
			"byteLength":21420,
			"byteOffset":0,
			"target":34962
		},
		{
			"buffer":0,
			"byteLength":21420,
			"byteOffset":21420,
			"target":34962
		},
		{
			"buffer":0,
			"byteLength":14280,
			"byteOffset":42840,
			"target":34962
		},
		{
			"buffer":0,
			"byteLength":10554,
			"byteOffset":57120,
			"target":34963
		}
	],
	"samplers":[
		{
			"magFilter":9728,
			"minFilter":9984
		}
	],
	"buffers":[
		{
			"byteLength":67676,
			"uri":"keeperInHovercraft.bin"
		}
	]
}
