{
	"asset":{
		"generator":"Khronos glTF Blender I/O v4.0.44",
		"version":"2.0"
	},
	"scene":0,
	"scenes":[
		{
			"name":"Scene",
			"nodes":[
				0
			]
		}
	],
	"nodes":[
		{
			"mesh":0,
			"name":"whale_ribs.001"
		}
	],
	"materials":[
		{
			"doubleSided":true,
			"name":"Material.002",
			"pbrMetallicRoughness":{
				"baseColorTexture":{
					"index":0
				},
				"metallicFactor":0,
				"roughnessFactor":0.5
			}
		}
	],
	"meshes":[
		{
			"name":"Cube.009",
			"primitives":[
				{
					"attributes":{
						"POSITION":0,
						"NORMAL":1,
						"TEXCOORD_0":2
					},
					"indices":3,
					"material":0
				}
			]
		}
	],
	"textures":[
		{
			"sampler":0,
			"source":0
		}
	],
	"images":[
		{
			"mimeType":"image/png",
			"name":"skull_color",
			"uri":"textures/skull_color.png"
		}
	],
	"accessors":[
		{
			"bufferView":0,
			"componentType":5126,
			"count":3137,
			"max":[
				5.667092323303223,
				0.45908159017562866,
				2.2866663932800293
			],
			"min":[
				-2.6703147888183594,
				0.004029810428619385,
				-2.2851247787475586
			],
			"type":"VEC3"
		},
		{
			"bufferView":1,
			"componentType":5126,
			"count":3137,
			"type":"VEC3"
		},
		{
			"bufferView":2,
			"componentType":5126,
			"count":3137,
			"type":"VEC2"
		},
		{
			"bufferView":3,
			"componentType":5123,
			"count":14730,
			"type":"SCALAR"
		}
	],
	"bufferViews":[
		{
			"buffer":0,
			"byteLength":37644,
			"byteOffset":0,
			"target":34962
		},
		{
			"buffer":0,
			"byteLength":37644,
			"byteOffset":37644,
			"target":34962
		},
		{
			"buffer":0,
			"byteLength":25096,
			"byteOffset":75288,
			"target":34962
		},
		{
			"buffer":0,
			"byteLength":29460,
			"byteOffset":100384,
			"target":34963
		}
	],
	"samplers":[
		{
			"magFilter":9729,
			"minFilter":9987
		}
	],
	"buffers":[
		{
			"byteLength":129844,
			"uri":"skeleton.bin"
		}
	]
}
