{
	"asset":{
		"generator":"Khronos glTF Blender I/O v4.0.44",
		"version":"2.0"
	},
	"scene":0,
	"scenes":[
		{
			"name":"Scene",
			"nodes":[
				0
			]
		}
	],
	"nodes":[
		{
			"mesh":0,
			"name":"lantern"
		}
	],
	"materials":[
		{
			"doubleSided":true,
			"name":"Material.001",
			"pbrMetallicRoughness":{
				"baseColorTexture":{
					"index":0
				},
				"metallicFactor":0,
				"roughnessFactor":0.5
			}
		}
	],
	"meshes":[
		{
			"name":"Cylinder.002",
			"primitives":[
				{
					"attributes":{
						"POSITION":0,
						"NORMAL":1,
						"TEXCOORD_0":2
					},
					"indices":3,
					"material":0
				}
			]
		}
	],
	"textures":[
		{
			"sampler":0,
			"source":0
		}
	],
	"images":[
		{
			"mimeType":"image/png",
			"name":"lantern_palette",
			"uri":"textures/lantern_palette.png"
		}
	],
	"accessors":[
		{
			"bufferView":0,
			"componentType":5126,
			"count":3306,
			"max":[
				0.213392436504364,
				1.014687418937683,
				0.2133924514055252
			],
			"min":[
				-0.213392436504364,
				3.1471454775555685e-08,
				-0.21339242160320282
			],
			"type":"VEC3"
		},
		{
			"bufferView":1,
			"componentType":5126,
			"count":3306,
			"type":"VEC3"
		},
		{
			"bufferView":2,
			"componentType":5126,
			"count":3306,
			"type":"VEC2"
		},
		{
			"bufferView":3,
			"componentType":5123,
			"count":8664,
			"type":"SCALAR"
		}
	],
	"bufferViews":[
		{
			"buffer":0,
			"byteLength":39672,
			"byteOffset":0,
			"target":34962
		},
		{
			"buffer":0,
			"byteLength":39672,
			"byteOffset":39672,
			"target":34962
		},
		{
			"buffer":0,
			"byteLength":26448,
			"byteOffset":79344,
			"target":34962
		},
		{
			"buffer":0,
			"byteLength":17328,
			"byteOffset":105792,
			"target":34963
		}
	],
	"samplers":[
		{
			"magFilter":9728,
			"minFilter":9984
		}
	],
	"buffers":[
		{
			"byteLength":123120,
			"uri":"lighthouse.bin"
		}
	]
}
