{
	"asset":{
		"generator":"Khronos glTF Blender I/O v4.0.44",
		"version":"2.0"
	},
	"scene":0,
	"scenes":[
		{
			"name":"Scene",
			"nodes":[
				0
			]
		}
	],
	"nodes":[
		{
			"mesh":0,
			"name":"stones",
			"rotation":[
				0,
				0.19324329495429993,
				0,
				0.9811508655548096
			],
			"scale":[
				-0.05704760551452637,
				-0.05704760551452637,
				-0.05704760551452637
			]
		}
	],
	"materials":[
		{
			"doubleSided":true,
			"name":"Material.001",
			"pbrMetallicRoughness":{
				"baseColorTexture":{
					"index":0
				},
				"metallicFactor":0,
				"roughnessFactor":0.5
			}
		}
	],
	"meshes":[
		{
			"name":"Cube.011",
			"primitives":[
				{
					"attributes":{
						"POSITION":0,
						"NORMAL":1,
						"TEXCOORD_0":2
					},
					"indices":3,
					"material":0
				}
			]
		}
	],
	"textures":[
		{
			"sampler":0,
			"source":0
		}
	],
	"images":[
		{
			"mimeType":"image/png",
			"name":"ice_color",
			"uri":"textures/ice_color.png"
		}
	],
	"accessors":[
		{
			"bufferView":0,
			"componentType":5126,
			"count":78,
			"max":[
				5.167807579040527,
				0.025947153568267822,
				4.487583160400391
			],
			"min":[
				-4.9571990966796875,
				-1.6780307292938232,
				-4.435821056365967
			],
			"type":"VEC3"
		},
		{
			"bufferView":1,
			"componentType":5126,
			"count":78,
			"type":"VEC3"
		},
		{
			"bufferView":2,
			"componentType":5126,
			"count":78,
			"type":"VEC2"
		},
		{
			"bufferView":3,
			"componentType":5123,
			"count":204,
			"type":"SCALAR"
		}
	],
	"bufferViews":[
		{
			"buffer":0,
			"byteLength":936,
			"byteOffset":0,
			"target":34962
		},
		{
			"buffer":0,
			"byteLength":936,
			"byteOffset":936,
			"target":34962
		},
		{
			"buffer":0,
			"byteLength":624,
			"byteOffset":1872,
			"target":34962
		},
		{
			"buffer":0,
			"byteLength":408,
			"byteOffset":2496,
			"target":34963
		}
	],
	"samplers":[
		{
			"magFilter":9729,
			"minFilter":9987
		}
	],
	"buffers":[
		{
			"byteLength":2904,
			"uri":"stones.bin"
		}
	]
}
