{
	"asset":{
		"generator":"Khronos glTF Blender I/O v3.6.28",
		"version":"2.0"
	},
	"scene":0,
	"scenes":[
		{
			"name":"Scene",
			"nodes":[
				0,
				1,
				2,
				3
			]
		}
	],
	"nodes":[
		{
			"mesh":0,
			"name":"ground"
		},
		{
			"mesh":1,
			"name":"iceberg"
		},
		{
			"mesh":2,
			"name":"kra"
		},
		{
			"mesh":3,
			"name":"Cube"
		}
	],
	"materials":[
		{
			"doubleSided":true,
			"name":"basic_material",
			"pbrMetallicRoughness":{
				"baseColorTexture":{
					"index":0
				},
				"metallicFactor":0
			}
		}
	],
	"meshes":[
		{
			"name":"Cube",
			"primitives":[
				{
					"attributes":{
						"POSITION":0,
						"NORMAL":1,
						"TEXCOORD_0":2
					},
					"indices":3,
					"material":0
				}
			]
		},
		{
			"name":"Cube.001",
			"primitives":[
				{
					"attributes":{
						"POSITION":4,
						"NORMAL":5,
						"TEXCOORD_0":6
					},
					"indices":7,
					"material":0
				}
			]
		},
		{
			"name":"Cube.002",
			"primitives":[
				{
					"attributes":{
						"POSITION":8,
						"NORMAL":9,
						"TEXCOORD_0":10
					},
					"indices":11,
					"material":0
				}
			]
		},
		{
			"name":"Cube.004",
			"primitives":[
				{
					"attributes":{
						"POSITION":12,
						"NORMAL":13,
						"TEXCOORD_0":14
					},
					"indices":15,
					"material":0
				}
			]
		}
	],
	"textures":[
		{
			"sampler":0,
			"source":0
		}
	],
	"images":[
		{
			"mimeType":"image/png",
			"name":"paleta_4_blockout",
			"uri":"textures/paleta_4_blockout.png"
		}
	],
	"accessors":[
		{
			"bufferView":0,
			"componentType":5126,
			"count":1320,
			"max":[
				4.593466281890869,
				0.2257581651210785,
				4.283477783203125
			],
			"min":[
				-4.593505859375,
				-0.000705160666257143,
				1.56560480594635
			],
			"type":"VEC3"
		},
		{
			"bufferView":1,
			"componentType":5126,
			"count":1320,
			"type":"VEC3"
		},
		{
			"bufferView":2,
			"componentType":5126,
			"count":1320,
			"type":"VEC2"
		},
		{
			"bufferView":3,
			"componentType":5123,
			"count":2556,
			"type":"SCALAR"
		},
		{
			"bufferView":4,
			"componentType":5126,
			"count":46,
			"max":[
				5.871328830718994,
				0.8771616220474243,
				-3.192780017852783
			],
			"min":[
				-5.8713297843933105,
				0,
				-7.20418119430542
			],
			"type":"VEC3"
		},
		{
			"bufferView":5,
			"componentType":5126,
			"count":46,
			"type":"VEC3"
		},
		{
			"bufferView":6,
			"componentType":5126,
			"count":46,
			"type":"VEC2"
		},
		{
			"bufferView":7,
			"componentType":5123,
			"count":84,
			"type":"SCALAR"
		},
		{
			"bufferView":8,
			"componentType":5126,
			"count":81,
			"max":[
				2.6176278591156006,
				0.48638448119163513,
				-1.5589808225631714
			],
			"min":[
				1.853814959526062,
				-0.04441875219345093,
				-2.2239809036254883
			],
			"type":"VEC3"
		},
		{
			"bufferView":9,
			"componentType":5126,
			"count":81,
			"type":"VEC3"
		},
		{
			"bufferView":10,
			"componentType":5126,
			"count":81,
			"type":"VEC2"
		},
		{
			"bufferView":11,
			"componentType":5123,
			"count":132,
			"type":"SCALAR"
		},
		{
			"bufferView":12,
			"componentType":5126,
			"count":456,
			"max":[
				4.989646911621094,
				0.4486488699913025,
				4.036128520965576
			],
			"min":[
				-4.989646911621094,
				0,
				1.9638444185256958
			],
			"type":"VEC3"
		},
		{
			"bufferView":13,
			"componentType":5126,
			"count":456,
			"type":"VEC3"
		},
		{
			"bufferView":14,
			"componentType":5126,
			"count":456,
			"type":"VEC2"
		},
		{
			"bufferView":15,
			"componentType":5123,
			"count":684,
			"type":"SCALAR"
		}
	],
	"bufferViews":[
		{
			"buffer":0,
			"byteLength":15840,
			"byteOffset":0,
			"target":34962
		},
		{
			"buffer":0,
			"byteLength":15840,
			"byteOffset":15840,
			"target":34962
		},
		{
			"buffer":0,
			"byteLength":10560,
			"byteOffset":31680,
			"target":34962
		},
		{
			"buffer":0,
			"byteLength":5112,
			"byteOffset":42240,
			"target":34963
		},
		{
			"buffer":0,
			"byteLength":552,
			"byteOffset":47352,
			"target":34962
		},
		{
			"buffer":0,
			"byteLength":552,
			"byteOffset":47904,
			"target":34962
		},
		{
			"buffer":0,
			"byteLength":368,
			"byteOffset":48456,
			"target":34962
		},
		{
			"buffer":0,
			"byteLength":168,
			"byteOffset":48824,
			"target":34963
		},
		{
			"buffer":0,
			"byteLength":972,
			"byteOffset":48992,
			"target":34962
		},
		{
			"buffer":0,
			"byteLength":972,
			"byteOffset":49964,
			"target":34962
		},
		{
			"buffer":0,
			"byteLength":648,
			"byteOffset":50936,
			"target":34962
		},
		{
			"buffer":0,
			"byteLength":264,
			"byteOffset":51584,
			"target":34963
		},
		{
			"buffer":0,
			"byteLength":5472,
			"byteOffset":51848,
			"target":34962
		},
		{
			"buffer":0,
			"byteLength":5472,
			"byteOffset":57320,
			"target":34962
		},
		{
			"buffer":0,
			"byteLength":3648,
			"byteOffset":62792,
			"target":34962
		},
		{
			"buffer":0,
			"byteLength":1368,
			"byteOffset":66440,
			"target":34963
		}
	],
	"samplers":[
		{
			"magFilter":9728,
			"minFilter":9984
		}
	],
	"buffers":[
		{
			"byteLength":67808,
			"uri":"scene.bin"
		}
	]
}
