{
	"asset":{
		"generator":"Khronos glTF Blender I/O v4.0.44",
		"version":"2.0"
	},
	"scene":0,
	"scenes":[
		{
			"name":"Scene",
			"nodes":[
				0
			]
		}
	],
	"nodes":[
		{
			"mesh":0,
			"name":"skull_ice.001",
			"translation":[
				0,
				0.031124601140618324,
				0
			]
		}
	],
	"materials":[
		{
			"doubleSided":true,
			"name":"Material",
			"pbrMetallicRoughness":{
				"baseColorTexture":{
					"index":0
				},
				"metallicFactor":0,
				"roughnessFactor":0.5
			}
		},
		{
			"doubleSided":true,
			"name":"skull_color",
			"pbrMetallicRoughness":{
				"baseColorTexture":{
					"index":1
				},
				"metallicFactor":0,
				"roughnessFactor":0.5
			}
		}
	],
	"meshes":[
		{
			"name":"Cube.006",
			"primitives":[
				{
					"attributes":{
						"POSITION":0,
						"NORMAL":1,
						"TEXCOORD_0":2
					},
					"indices":3,
					"material":0
				},
				{
					"attributes":{
						"POSITION":4,
						"NORMAL":5,
						"TEXCOORD_0":6
					},
					"indices":7,
					"material":1
				}
			]
		}
	],
	"textures":[
		{
			"sampler":0,
			"source":0
		},
		{
			"sampler":0,
			"source":1
		}
	],
	"images":[
		{
			"mimeType":"image/png",
			"name":"ice_color",
			"uri":"textures/ice_color.png"
		},
		{
			"mimeType":"image/png",
			"name":"skull_color",
			"uri":"textures/skull_color.png"
		}
	],
	"accessors":[
		{
			"bufferView":0,
			"componentType":5126,
			"count":186,
			"max":[
				0.2673285901546478,
				0.2393047958612442,
				0.29849308729171753
			],
			"min":[
				-0.14377716183662415,
				-0.024256927892565727,
				-0.2154899686574936
			],
			"type":"VEC3"
		},
		{
			"bufferView":1,
			"componentType":5126,
			"count":186,
			"type":"VEC3"
		},
		{
			"bufferView":2,
			"componentType":5126,
			"count":186,
			"type":"VEC2"
		},
		{
			"bufferView":3,
			"componentType":5123,
			"count":1068,
			"type":"SCALAR"
		},
		{
			"bufferView":4,
			"componentType":5126,
			"count":356,
			"max":[
				0.19780634343624115,
				0.24057231843471527,
				0.27994319796562195
			],
			"min":[
				-0.19780634343624115,
				-0.004029755014926195,
				-0.24478451907634735
			],
			"type":"VEC3"
		},
		{
			"bufferView":5,
			"componentType":5126,
			"count":356,
			"type":"VEC3"
		},
		{
			"bufferView":6,
			"componentType":5126,
			"count":356,
			"type":"VEC2"
		},
		{
			"bufferView":7,
			"componentType":5123,
			"count":2040,
			"type":"SCALAR"
		}
	],
	"bufferViews":[
		{
			"buffer":0,
			"byteLength":2232,
			"byteOffset":0,
			"target":34962
		},
		{
			"buffer":0,
			"byteLength":2232,
			"byteOffset":2232,
			"target":34962
		},
		{
			"buffer":0,
			"byteLength":1488,
			"byteOffset":4464,
			"target":34962
		},
		{
			"buffer":0,
			"byteLength":2136,
			"byteOffset":5952,
			"target":34963
		},
		{
			"buffer":0,
			"byteLength":4272,
			"byteOffset":8088,
			"target":34962
		},
		{
			"buffer":0,
			"byteLength":4272,
			"byteOffset":12360,
			"target":34962
		},
		{
			"buffer":0,
			"byteLength":2848,
			"byteOffset":16632,
			"target":34962
		},
		{
			"buffer":0,
			"byteLength":4080,
			"byteOffset":19480,
			"target":34963
		}
	],
	"samplers":[
		{
			"magFilter":9729,
			"minFilter":9987
		}
	],
	"buffers":[
		{
			"byteLength":23560,
			"uri":"skull.bin"
		}
	]
}
