{
	"asset":{
		"generator":"Khronos glTF Blender I/O v4.0.44",
		"version":"2.0"
	},
	"extensionsUsed":[
		"KHR_materials_specular",
		"KHR_materials_ior"
	],
	"scene":0,
	"scenes":[
		{
			"name":"Scene",
			"nodes":[
				0
			]
		}
	],
	"nodes":[
		{
			"mesh":0,
			"name":"body"
		}
	],
	"materials":[
		{
			"doubleSided":true,
			"extensions":{
				"KHR_materials_specular":{
					"specularFactor":0.9272727370262146
				},
				"KHR_materials_ior":{
					"ior":1.4500000476837158
				}
			},
			"name":"pengmat",
			"pbrMetallicRoughness":{
				"baseColorTexture":{
					"index":0
				},
				"metallicFactor":0,
				"roughnessFactor":0.7636363506317139
			}
		}
	],
	"meshes":[
		{
			"name":"Icosphere.009",
			"primitives":[
				{
					"attributes":{
						"POSITION":0,
						"NORMAL":1,
						"TEXCOORD_0":2
					},
					"indices":3,
					"material":0
				}
			]
		}
	],
	"textures":[
		{
			"sampler":0,
			"source":0
		}
	],
	"images":[
		{
			"mimeType":"image/png",
			"name":"penguin_palette",
			"uri":"textures/penguin_palette.png"
		}
	],
	"accessors":[
		{
			"bufferView":0,
			"componentType":5126,
			"count":377,
			"max":[
				0.09960432350635529,
				0.26217201352119446,
				0.08962725847959518
			],
			"min":[
				-0.08524069935083389,
				0,
				-0.08962725847959518
			],
			"type":"VEC3"
		},
		{
			"bufferView":1,
			"componentType":5126,
			"count":377,
			"type":"VEC3"
		},
		{
			"bufferView":2,
			"componentType":5126,
			"count":377,
			"type":"VEC2"
		},
		{
			"bufferView":3,
			"componentType":5123,
			"count":1344,
			"type":"SCALAR"
		}
	],
	"bufferViews":[
		{
			"buffer":0,
			"byteLength":4524,
			"byteOffset":0,
			"target":34962
		},
		{
			"buffer":0,
			"byteLength":4524,
			"byteOffset":4524,
			"target":34962
		},
		{
			"buffer":0,
			"byteLength":3016,
			"byteOffset":9048,
			"target":34962
		},
		{
			"buffer":0,
			"byteLength":2688,
			"byteOffset":12064,
			"target":34963
		}
	],
	"samplers":[
		{
			"magFilter":9728,
			"minFilter":9984
		}
	],
	"buffers":[
		{
			"byteLength":14752,
			"uri":"body.bin"
		}
	]
}
